<svg width="36" height="39" viewBox="0 0 36 39" fill="none" xmlns="http://www.w3.org/2000/svg">
<path d="M24.6216 8.11493C26.6965 8.11493 28.6443 8.11493 30.5921 8.11493C32.7375 8.11493 32.7093 7.93008 32.9633 10.319C33.3868 14.3716 33.8667 18.41 34.3042 22.4483C34.6994 26.0743 35.0946 29.6861 35.4898 33.3121C35.6451 34.7768 35.8004 36.2272 35.9838 37.6918C36.0826 38.5592 35.7298 39 34.8829 39C23.6195 39 12.3561 39 1.09268 39C0.274034 39 -0.0929438 38.545 0.0199726 37.7345C0.965647 30.7099 1.92544 23.6854 2.89934 16.6609C3.22398 14.272 3.56272 11.8831 3.88736 9.49424C4.05673 8.28557 4.24022 8.12915 5.46819 8.12915C7.8112 8.12915 10.1683 8.12915 12.6384 8.12915C12.6384 7.46083 12.6243 6.83517 12.6384 6.2095C12.6807 3.08118 14.6144 0.720718 17.6208 0.109273C20.9942 -0.587489 24.4664 2.14268 24.6075 5.59806C24.6499 6.39436 24.6216 7.20488 24.6216 8.11493ZM26.1883 36.995C27.6421 28.0367 29.0818 19.1067 30.5356 10.063C30.211 10.063 29.9287 10.063 29.6605 10.063C25.1015 10.063 20.5284 10.063 15.9694 10.063C12.7936 10.063 9.61787 10.063 6.44209 10.063C6.061 10.063 5.76459 10.063 5.70814 10.5749C5.35527 13.3193 4.96006 16.0637 4.57897 18.7939C3.98616 23.1024 3.37924 27.411 2.78642 31.7195C2.54648 33.4686 2.30653 35.2034 2.06658 36.9808C10.126 36.995 18.0866 36.995 26.1883 36.995ZM31.6366 16.2059C31.5942 16.2059 31.566 16.2059 31.5236 16.1917C30.4086 23.1024 29.2935 30.0274 28.1644 36.9808C30.0981 36.9808 31.9894 36.9808 33.9372 36.9808C33.1609 30.0274 32.3988 23.1167 31.6366 16.2059ZM14.4733 8.02962C17.3526 8.02962 20.0062 8.02962 22.6456 8.02962C22.6456 7.2191 22.6738 6.47967 22.6456 5.75447C22.5609 3.92014 21.1071 2.31332 19.3428 2.02893C17.4091 1.73031 15.4472 2.78257 14.9108 4.60268C14.6003 5.69759 14.6144 6.87782 14.4733 8.02962Z" fill="white"/>
</svg>
