<svg width="858" height="224" viewBox="0 0 858 224" fill="none" xmlns="http://www.w3.org/2000/svg">
<path fill-rule="evenodd" clip-rule="evenodd" d="M521.377 8.89971C511.06 2.96657 499.468 0 486.857 0C474.247 0 462.655 2.96657 452.337 8.89971C441.892 14.8328 433.612 23.0876 427.625 33.5351C421.638 43.8536 418.581 55.4619 418.581 68.2311C418.581 80.8713 421.638 92.6086 427.625 103.056C433.612 113.375 441.892 121.629 452.337 127.433C462.655 133.367 474.247 136.333 486.857 136.333C499.468 136.333 511.06 133.367 521.377 127.433C531.823 121.5 540.102 113.246 546.089 102.927C552.076 92.4796 555.133 80.8713 555.133 68.1021C555.133 55.333 552.076 43.7247 546.089 33.4061C540.102 23.0876 531.823 14.7039 521.377 8.89971ZM486.857 24.7644C495.264 24.7644 502.652 26.5701 509.404 30.4396C516.027 34.18 521.123 39.2103 524.944 45.9173C528.766 52.4954 530.549 59.7183 530.549 67.9731C530.549 76.3569 528.638 83.5799 524.944 90.2869C521.123 96.8649 516.027 101.895 509.404 105.636C502.652 109.505 495.264 111.311 486.857 111.311C478.45 111.311 471.062 109.505 464.311 105.636C457.687 101.895 452.592 96.8649 448.77 90.2869C444.949 83.5799 443.038 76.3569 443.038 67.9731C443.038 59.5893 444.822 52.3664 448.77 45.7883C452.592 39.2103 457.687 34.0511 464.311 30.3106C471.062 26.6991 478.45 24.7644 486.857 24.7644ZM314.766 30.6927C321.39 26.9522 328.905 25.0175 337.185 25.0175C343.045 25.0175 348.522 25.9204 353.362 27.8551C353.49 27.8551 353.49 27.8551 353.617 27.9841C358.33 29.6608 362.279 32.1115 365.464 35.465C370.177 40.2373 377.819 40.2373 382.533 35.465L382.787 35.207C385.08 32.8854 386.354 29.7898 386.354 26.5653C386.354 23.3408 385.08 20.2452 382.787 17.9236C376.928 11.9904 369.922 7.60505 361.897 4.63849C354.254 1.67192 345.974 0.253123 337.185 0.253123C324.702 0.253123 313.11 3.21969 302.792 9.02385C292.347 14.957 284.067 23.2118 278.208 33.5303C272.221 43.8488 269.164 55.4571 269.164 68.0973C269.164 80.7374 272.221 92.4747 278.208 102.922C284.195 113.241 292.474 121.367 302.792 127.3C313.11 133.104 324.702 136.07 337.185 136.07C345.847 136.07 354.254 134.652 362.024 131.685C370.049 128.718 377.055 124.204 382.915 118.271C385.208 115.949 386.481 112.854 386.481 109.629C386.481 106.405 385.208 103.309 382.915 100.987L382.66 100.73C377.947 95.9572 370.304 95.9572 365.591 100.73C362.279 104.083 358.203 106.663 353.49 108.468C348.522 110.403 343.045 111.306 337.185 111.306C328.905 111.306 321.39 109.371 314.766 105.631C308.27 101.89 303.047 96.7311 299.353 90.411C295.659 83.833 293.748 76.3521 293.748 68.0973C293.748 59.8425 295.659 52.4905 299.353 46.0415C303.047 39.4634 308.142 34.3042 314.766 30.6927ZM845.13 110.535C848.315 110.535 851.372 111.825 853.665 114.146C855.958 116.468 857.232 119.564 857.359 122.788V123.175C857.359 129.882 851.881 135.428 845.258 135.428H775.326C768.702 135.428 763.225 129.882 763.225 123.175V13.0251C763.225 6.31807 768.702 0.77188 775.326 0.77188H845.385C852.009 0.77188 857.486 6.31807 857.486 13.0251V13.412C857.486 20.1191 852.009 25.6653 845.385 25.6653H787.682V110.664L845.13 110.535ZM83.2333 7.99945C81.3226 3.61409 77.119 0.7765 72.406 0.7765C67.6929 0.647519 63.4893 3.22714 61.3238 7.48352L6.29541 117.891C4.76684 120.858 4.63946 124.341 5.65851 127.565C6.67755 130.79 9.09778 133.24 12.1549 134.659L12.4097 134.788C18.2692 137.497 25.2751 134.917 28.0775 129.113L72.0238 40.8897L116.352 129.113C118.518 133.369 122.721 135.82 127.18 135.82C128.836 135.82 130.492 135.433 132.147 134.788L132.402 134.659C135.459 133.24 137.752 130.661 138.899 127.565C140.045 124.469 139.79 120.987 138.262 117.891L83.2333 7.99945ZM846.458 68.356C846.458 75.063 840.981 80.6092 834.357 80.6092H804.132V68.356V68.098V55.8448H834.357C840.981 55.8448 846.458 61.391 846.458 68.098V68.356ZM215.429 55.8448H176.578C169.954 55.8448 164.477 61.391 164.477 68.098V68.356C164.477 75.063 169.954 80.6092 176.578 80.6092H215.429C222.053 80.6092 227.53 75.063 227.53 68.356V68.098C227.53 61.262 222.053 55.8448 215.429 55.8448ZM652.047 0.38594C665.294 0.38594 677.268 3.35251 687.713 9.02768C698.541 14.8318 706.948 23.0866 712.935 33.5341C718.794 43.7236 721.851 55.332 721.851 68.1011C721.851 80.8702 718.794 92.4785 712.807 102.797C706.948 113.116 698.413 121.37 687.713 127.174C677.396 132.85 665.422 135.687 652.047 135.687H610.521C603.897 135.687 598.42 130.141 598.42 123.434V12.6392C598.42 5.93213 603.897 0.38594 610.521 0.38594H652.047ZM623.004 110.923H652.047C661.218 110.923 669.371 109.117 676.122 105.248C683 101.636 687.968 96.7349 691.662 90.2859V90.1569C695.484 83.7078 697.267 76.3559 697.267 68.1011C697.267 59.8463 695.484 52.6233 691.662 46.0453C687.841 39.4673 682.873 34.566 676.122 30.9545C669.371 27.214 661.218 25.2793 652.047 25.2793H623.004V110.923Z" fill="#1D1D1B"/>
<path d="M20.736 205.752H7.932L5.732 212H0.496L11.452 181.376H17.26L28.216 212H22.936L20.736 205.752ZM19.328 201.66L14.356 187.448L9.34 201.66H19.328ZM42.3957 191.276C43.129 190.044 44.097 189.091 45.2997 188.416C46.5317 187.712 47.9837 187.36 49.6557 187.36V192.552H48.3797C46.4144 192.552 44.9184 193.051 43.8917 194.048C42.8944 195.045 42.3957 196.776 42.3957 199.24V212H37.3797V187.756H42.3957V191.276ZM56.9944 199.856C56.9944 197.363 57.4931 195.177 58.4904 193.3C59.5171 191.393 60.9251 189.927 62.7144 188.9C64.5037 187.873 66.5571 187.36 68.8744 187.36C71.8077 187.36 74.2277 188.064 76.1344 189.472C78.0704 190.851 79.3757 192.831 80.0504 195.412H74.6384C74.1984 194.209 73.4944 193.271 72.5264 192.596C71.5584 191.921 70.3411 191.584 68.8744 191.584C66.8211 191.584 65.1784 192.317 63.9464 193.784C62.7437 195.221 62.1424 197.245 62.1424 199.856C62.1424 202.467 62.7437 204.505 63.9464 205.972C65.1784 207.439 66.8211 208.172 68.8744 208.172C71.7784 208.172 73.6997 206.896 74.6384 204.344H80.0504C79.3464 206.808 78.0264 208.773 76.0904 210.24C74.1544 211.677 71.7491 212.396 68.8744 212.396C66.5571 212.396 64.5037 211.883 62.7144 210.856C60.9251 209.8 59.5171 208.333 58.4904 206.456C57.4931 204.549 56.9944 202.349 56.9944 199.856ZM101.989 187.36C103.837 187.36 105.48 187.756 106.917 188.548C108.384 189.34 109.528 190.513 110.349 192.068C111.2 193.623 111.625 195.5 111.625 197.7V212H106.653V198.448C106.653 196.277 106.111 194.62 105.025 193.476C103.94 192.303 102.459 191.716 100.581 191.716C98.7039 191.716 97.2079 192.303 96.0932 193.476C95.0079 194.62 94.4652 196.277 94.4652 198.448V212H89.4492V179.44H94.4652V190.572C95.3159 189.545 96.3865 188.753 97.6772 188.196C98.9972 187.639 100.435 187.36 101.989 187.36ZM124.975 184.544C124.066 184.544 123.303 184.236 122.687 183.62C122.071 183.004 121.763 182.241 121.763 181.332C121.763 180.423 122.071 179.66 122.687 179.044C123.303 178.428 124.066 178.12 124.975 178.12C125.855 178.12 126.603 178.428 127.219 179.044C127.835 179.66 128.143 180.423 128.143 181.332C128.143 182.241 127.835 183.004 127.219 183.62C126.603 184.236 125.855 184.544 124.975 184.544ZM127.439 187.756V212H122.423V187.756H127.439ZM144.277 191.848V205.268C144.277 206.177 144.482 206.837 144.893 207.248C145.333 207.629 146.066 207.82 147.093 207.82H150.173V212H146.213C143.954 212 142.224 211.472 141.021 210.416C139.818 209.36 139.217 207.644 139.217 205.268V191.848H136.357V187.756H139.217V181.728H144.277V187.756H150.173V191.848H144.277ZM181.416 199.284C181.416 200.193 181.357 201.015 181.24 201.748H162.716C162.863 203.684 163.581 205.239 164.872 206.412C166.163 207.585 167.747 208.172 169.624 208.172C172.323 208.172 174.229 207.043 175.344 204.784H180.756C180.023 207.013 178.688 208.847 176.752 210.284C174.845 211.692 172.469 212.396 169.624 212.396C167.307 212.396 165.224 211.883 163.376 210.856C161.557 209.8 160.12 208.333 159.064 206.456C158.037 204.549 157.524 202.349 157.524 199.856C157.524 197.363 158.023 195.177 159.02 193.3C160.047 191.393 161.469 189.927 163.288 188.9C165.136 187.873 167.248 187.36 169.624 187.36C171.912 187.36 173.951 187.859 175.74 188.856C177.529 189.853 178.923 191.261 179.92 193.08C180.917 194.869 181.416 196.937 181.416 199.284ZM176.18 197.7C176.151 195.852 175.491 194.371 174.2 193.256C172.909 192.141 171.311 191.584 169.404 191.584C167.673 191.584 166.192 192.141 164.96 193.256C163.728 194.341 162.995 195.823 162.76 197.7H176.18ZM189.08 199.856C189.08 197.363 189.579 195.177 190.576 193.3C191.603 191.393 193.011 189.927 194.8 188.9C196.59 187.873 198.643 187.36 200.96 187.36C203.894 187.36 206.314 188.064 208.22 189.472C210.156 190.851 211.462 192.831 212.136 195.412H206.724C206.284 194.209 205.58 193.271 204.612 192.596C203.644 191.921 202.427 191.584 200.96 191.584C198.907 191.584 197.264 192.317 196.032 193.784C194.83 195.221 194.228 197.245 194.228 199.856C194.228 202.467 194.83 204.505 196.032 205.972C197.264 207.439 198.907 208.172 200.96 208.172C203.864 208.172 205.786 206.896 206.724 204.344H212.136C211.432 206.808 210.112 208.773 208.176 210.24C206.24 211.677 203.835 212.396 200.96 212.396C198.643 212.396 196.59 211.883 194.8 210.856C193.011 209.8 191.603 208.333 190.576 206.456C189.579 204.549 189.08 202.349 189.08 199.856ZM227.387 191.848V205.268C227.387 206.177 227.592 206.837 228.003 207.248C228.443 207.629 229.176 207.82 230.203 207.82H233.283V212H229.323C227.064 212 225.334 211.472 224.131 210.416C222.928 209.36 222.327 207.644 222.327 205.268V191.848H219.467V187.756H222.327V181.728H227.387V187.756H233.283V191.848H227.387ZM264.262 187.756V212H259.246V209.14C258.454 210.137 257.413 210.929 256.122 211.516C254.861 212.073 253.512 212.352 252.074 212.352C250.168 212.352 248.452 211.956 246.926 211.164C245.43 210.372 244.242 209.199 243.362 207.644C242.512 206.089 242.086 204.212 242.086 202.012V187.756H247.058V201.264C247.058 203.435 247.601 205.107 248.686 206.28C249.772 207.424 251.253 207.996 253.13 207.996C255.008 207.996 256.489 207.424 257.574 206.28C258.689 205.107 259.246 203.435 259.246 201.264V187.756H264.262ZM280.296 191.276C281.03 190.044 281.998 189.091 283.2 188.416C284.432 187.712 285.884 187.36 287.556 187.36V192.552H286.28C284.315 192.552 282.819 193.051 281.792 194.048C280.795 195.045 280.296 196.776 280.296 199.24V212H275.28V187.756H280.296V191.276ZM318.787 199.284C318.787 200.193 318.729 201.015 318.611 201.748H300.087C300.234 203.684 300.953 205.239 302.243 206.412C303.534 207.585 305.118 208.172 306.995 208.172C309.694 208.172 311.601 207.043 312.715 204.784H318.127C317.394 207.013 316.059 208.847 314.123 210.284C312.217 211.692 309.841 212.396 306.995 212.396C304.678 212.396 302.595 211.883 300.747 210.856C298.929 209.8 297.491 208.333 296.435 206.456C295.409 204.549 294.895 202.349 294.895 199.856C294.895 197.363 295.394 195.177 296.391 193.3C297.418 191.393 298.841 189.927 300.659 188.9C302.507 187.873 304.619 187.36 306.995 187.36C309.283 187.36 311.322 187.859 313.111 188.856C314.901 189.853 316.294 191.261 317.291 193.08C318.289 194.869 318.787 196.937 318.787 199.284ZM313.551 197.7C313.522 195.852 312.862 194.371 311.571 193.256C310.281 192.141 308.682 191.584 306.775 191.584C305.045 191.584 303.563 192.141 302.331 193.256C301.099 194.341 300.366 195.823 300.131 197.7H313.551ZM342.281 199.768C342.281 197.333 342.78 195.177 343.777 193.3C344.804 191.423 346.182 189.971 347.913 188.944C349.673 187.888 351.624 187.36 353.765 187.36C355.349 187.36 356.904 187.712 358.429 188.416C359.984 189.091 361.216 190 362.125 191.144V179.44H367.185V212H362.125V208.348C361.304 209.521 360.16 210.489 358.693 211.252C357.256 212.015 355.598 212.396 353.721 212.396C351.609 212.396 349.673 211.868 347.913 210.812C346.182 209.727 344.804 208.231 343.777 206.324C342.78 204.388 342.281 202.203 342.281 199.768ZM362.125 199.856C362.125 198.184 361.773 196.732 361.069 195.5C360.394 194.268 359.5 193.329 358.385 192.684C357.27 192.039 356.068 191.716 354.777 191.716C353.486 191.716 352.284 192.039 351.169 192.684C350.054 193.3 349.145 194.224 348.441 195.456C347.766 196.659 347.429 198.096 347.429 199.768C347.429 201.44 347.766 202.907 348.441 204.168C349.145 205.429 350.054 206.397 351.169 207.072C352.313 207.717 353.516 208.04 354.777 208.04C356.068 208.04 357.27 207.717 358.385 207.072C359.5 206.427 360.394 205.488 361.069 204.256C361.773 202.995 362.125 201.528 362.125 199.856ZM378.965 181.42H384.421L379.801 191.892H376.281L378.965 181.42ZM395.782 184.544C394.872 184.544 394.11 184.236 393.494 183.62C392.878 183.004 392.57 182.241 392.57 181.332C392.57 180.423 392.878 179.66 393.494 179.044C394.11 178.428 394.872 178.12 395.782 178.12C396.662 178.12 397.41 178.428 398.026 179.044C398.642 179.66 398.95 180.423 398.95 181.332C398.95 182.241 398.642 183.004 398.026 183.62C397.41 184.236 396.662 184.544 395.782 184.544ZM398.246 187.756V212H393.23V187.756H398.246ZM421.463 187.36C423.37 187.36 425.071 187.756 426.567 188.548C428.093 189.34 429.281 190.513 430.131 192.068C430.982 193.623 431.407 195.5 431.407 197.7V212H426.435V198.448C426.435 196.277 425.893 194.62 424.807 193.476C423.722 192.303 422.241 191.716 420.363 191.716C418.486 191.716 416.99 192.303 415.875 193.476C414.79 194.62 414.247 196.277 414.247 198.448V212H409.231V187.756H414.247V190.528C415.069 189.531 416.11 188.753 417.371 188.196C418.662 187.639 420.026 187.36 421.463 187.36ZM448.057 191.848V205.268C448.057 206.177 448.263 206.837 448.673 207.248C449.113 207.629 449.847 207.82 450.873 207.82H453.953V212H449.993C447.735 212 446.004 211.472 444.801 210.416C443.599 209.36 442.997 207.644 442.997 205.268V191.848H440.137V187.756H442.997V181.728H448.057V187.756H453.953V191.848H448.057ZM485.197 199.284C485.197 200.193 485.138 201.015 485.021 201.748H466.497C466.643 203.684 467.362 205.239 468.653 206.412C469.943 207.585 471.527 208.172 473.405 208.172C476.103 208.172 478.01 207.043 479.125 204.784H484.537C483.803 207.013 482.469 208.847 480.533 210.284C478.626 211.692 476.25 212.396 473.405 212.396C471.087 212.396 469.005 211.883 467.157 210.856C465.338 209.8 463.901 208.333 462.845 206.456C461.818 204.549 461.305 202.349 461.305 199.856C461.305 197.363 461.803 195.177 462.801 193.3C463.827 191.393 465.25 189.927 467.069 188.9C468.917 187.873 471.029 187.36 473.405 187.36C475.693 187.36 477.731 187.859 479.521 188.856C481.31 189.853 482.703 191.261 483.701 193.08C484.698 194.869 485.197 196.937 485.197 199.284ZM479.961 197.7C479.931 195.852 479.271 194.371 477.981 193.256C476.69 192.141 475.091 191.584 473.185 191.584C471.454 191.584 469.973 192.141 468.741 193.256C467.509 194.341 466.775 195.823 466.541 197.7H479.961ZM477.805 181.244L468.081 186.04V182.344L477.805 176.976V181.244ZM499.549 191.276C500.282 190.044 501.25 189.091 502.453 188.416C503.685 187.712 505.137 187.36 506.809 187.36V192.552H505.533C503.567 192.552 502.071 193.051 501.045 194.048C500.047 195.045 499.549 196.776 499.549 199.24V212H494.533V187.756H499.549V191.276ZM518.372 184.544C517.462 184.544 516.7 184.236 516.084 183.62C515.468 183.004 515.16 182.241 515.16 181.332C515.16 180.423 515.468 179.66 516.084 179.044C516.7 178.428 517.462 178.12 518.372 178.12C519.252 178.12 520 178.428 520.616 179.044C521.232 179.66 521.54 180.423 521.54 181.332C521.54 182.241 521.232 183.004 520.616 183.62C520 184.236 519.252 184.544 518.372 184.544ZM520.836 187.756V212H515.82V187.756H520.836ZM554.041 199.284C554.041 200.193 553.982 201.015 553.865 201.748H535.341C535.488 203.684 536.206 205.239 537.497 206.412C538.788 207.585 540.372 208.172 542.249 208.172C544.948 208.172 546.854 207.043 547.969 204.784H553.381C552.648 207.013 551.313 208.847 549.377 210.284C547.47 211.692 545.094 212.396 542.249 212.396C539.932 212.396 537.849 211.883 536.001 210.856C534.182 209.8 532.745 208.333 531.689 206.456C530.662 204.549 530.149 202.349 530.149 199.856C530.149 197.363 530.648 195.177 531.645 193.3C532.672 191.393 534.094 189.927 535.913 188.9C537.761 187.873 539.873 187.36 542.249 187.36C544.537 187.36 546.576 187.859 548.365 188.856C550.154 189.853 551.548 191.261 552.545 193.08C553.542 194.869 554.041 196.937 554.041 199.284ZM548.805 197.7C548.776 195.852 548.116 194.371 546.825 193.256C545.534 192.141 543.936 191.584 542.029 191.584C540.298 191.584 538.817 192.141 537.585 193.256C536.353 194.341 535.62 195.823 535.385 197.7H548.805ZM585.333 187.756V212H580.317V209.14C579.525 210.137 578.484 210.929 577.193 211.516C575.932 212.073 574.583 212.352 573.145 212.352C571.239 212.352 569.523 211.956 567.997 211.164C566.501 210.372 565.313 209.199 564.433 207.644C563.583 206.089 563.157 204.212 563.157 202.012V187.756H568.129V201.264C568.129 203.435 568.672 205.107 569.757 206.28C570.843 207.424 572.324 207.996 574.201 207.996C576.079 207.996 577.56 207.424 578.645 206.28C579.76 205.107 580.317 203.435 580.317 201.264V187.756H585.333ZM601.368 191.276C602.101 190.044 603.069 189.091 604.272 188.416C605.504 187.712 606.956 187.36 608.628 187.36V192.552H607.352C605.386 192.552 603.89 193.051 602.864 194.048C601.866 195.045 601.368 196.776 601.368 199.24V212H596.352V187.756H601.368V191.276ZM657.096 212L653.312 208.216C651.845 209.683 650.247 210.783 648.516 211.516C646.785 212.22 644.849 212.572 642.708 212.572C640.537 212.572 638.616 212.191 636.944 211.428C635.272 210.665 633.981 209.58 633.072 208.172C632.163 206.735 631.708 205.077 631.708 203.2C631.708 201.088 632.309 199.211 633.512 197.568C634.715 195.896 636.504 194.576 638.88 193.608C638.029 192.581 637.428 191.628 637.076 190.748C636.724 189.839 636.548 188.841 636.548 187.756C636.548 186.407 636.885 185.204 637.56 184.148C638.264 183.092 639.261 182.256 640.552 181.64C641.843 181.024 643.339 180.716 645.04 180.716C646.771 180.716 648.237 181.053 649.44 181.728C650.672 182.373 651.581 183.268 652.168 184.412C652.784 185.556 653.033 186.832 652.916 188.24H647.9C647.929 187.155 647.665 186.319 647.108 185.732C646.551 185.116 645.788 184.808 644.82 184.808C643.852 184.808 643.06 185.101 642.444 185.688C641.857 186.245 641.564 186.935 641.564 187.756C641.564 188.548 641.784 189.34 642.224 190.132C642.693 190.895 643.5 191.892 644.644 193.124L652.74 201.176L655.864 196.028H661.276L657.316 202.804L656.216 204.608L663.652 212H657.096ZM642.708 208.304C645.465 208.304 647.9 207.175 650.012 204.916L641.916 196.776C638.455 198.155 636.724 200.237 636.724 203.024C636.724 204.52 637.281 205.781 638.396 206.808C639.511 207.805 640.948 208.304 642.708 208.304ZM685.498 199.768C685.498 197.333 685.997 195.177 686.994 193.3C688.021 191.423 689.4 189.971 691.13 188.944C692.89 187.888 694.841 187.36 696.982 187.36C698.566 187.36 700.121 187.712 701.646 188.416C703.201 189.091 704.433 190 705.342 191.144V179.44H710.402V212H705.342V208.348C704.521 209.521 703.377 210.489 701.91 211.252C700.473 212.015 698.816 212.396 696.938 212.396C694.826 212.396 692.89 211.868 691.13 210.812C689.4 209.727 688.021 208.231 686.994 206.324C685.997 204.388 685.498 202.203 685.498 199.768ZM705.342 199.856C705.342 198.184 704.99 196.732 704.286 195.5C703.612 194.268 702.717 193.329 701.602 192.684C700.488 192.039 699.285 191.716 697.994 191.716C696.704 191.716 695.501 192.039 694.386 192.684C693.272 193.3 692.362 194.224 691.658 195.456C690.984 196.659 690.646 198.096 690.646 199.768C690.646 201.44 690.984 202.907 691.658 204.168C692.362 205.429 693.272 206.397 694.386 207.072C695.53 207.717 696.733 208.04 697.994 208.04C699.285 208.04 700.488 207.717 701.602 207.072C702.717 206.427 703.612 205.488 704.286 204.256C704.99 202.995 705.342 201.528 705.342 199.856ZM743.611 199.284C743.611 200.193 743.552 201.015 743.435 201.748H724.911C725.057 203.684 725.776 205.239 727.067 206.412C728.357 207.585 729.941 208.172 731.819 208.172C734.517 208.172 736.424 207.043 737.539 204.784H742.951C742.217 207.013 740.883 208.847 738.947 210.284C737.04 211.692 734.664 212.396 731.819 212.396C729.501 212.396 727.419 211.883 725.571 210.856C723.752 209.8 722.315 208.333 721.259 206.456C720.232 204.549 719.719 202.349 719.719 199.856C719.719 197.363 720.217 195.177 721.215 193.3C722.241 191.393 723.664 189.927 725.483 188.9C727.331 187.873 729.443 187.36 731.819 187.36C734.107 187.36 736.145 187.859 737.935 188.856C739.724 189.853 741.117 191.261 742.115 193.08C743.112 194.869 743.611 196.937 743.611 199.284ZM738.375 197.7C738.345 195.852 737.685 194.371 736.395 193.256C735.104 192.141 733.505 191.584 731.599 191.584C729.868 191.584 728.387 192.141 727.155 193.256C725.923 194.341 725.189 195.823 724.955 197.7H738.375ZM761.747 212.396C759.84 212.396 758.124 212.059 756.599 211.384C755.103 210.68 753.915 209.741 753.035 208.568C752.155 207.365 751.686 206.031 751.627 204.564H756.819C756.907 205.591 757.391 206.456 758.271 207.16C759.18 207.835 760.31 208.172 761.659 208.172C763.067 208.172 764.152 207.908 764.915 207.38C765.707 206.823 766.103 206.119 766.103 205.268C766.103 204.359 765.663 203.684 764.783 203.244C763.932 202.804 762.568 202.32 760.691 201.792C758.872 201.293 757.391 200.809 756.247 200.34C755.103 199.871 754.106 199.152 753.255 198.184C752.434 197.216 752.023 195.94 752.023 194.356C752.023 193.065 752.404 191.892 753.167 190.836C753.93 189.751 755.015 188.9 756.423 188.284C757.86 187.668 759.503 187.36 761.351 187.36C764.108 187.36 766.323 188.064 767.995 189.472C769.696 190.851 770.606 192.743 770.723 195.148H765.707C765.619 194.063 765.179 193.197 764.387 192.552C763.595 191.907 762.524 191.584 761.175 191.584C759.855 191.584 758.843 191.833 758.139 192.332C757.435 192.831 757.083 193.491 757.083 194.312C757.083 194.957 757.318 195.5 757.787 195.94C758.256 196.38 758.828 196.732 759.503 196.996C760.178 197.231 761.175 197.539 762.495 197.92C764.255 198.389 765.692 198.873 766.807 199.372C767.951 199.841 768.934 200.545 769.755 201.484C770.576 202.423 771.002 203.669 771.031 205.224C771.031 206.603 770.65 207.835 769.887 208.92C769.124 210.005 768.039 210.856 766.631 211.472C765.252 212.088 763.624 212.396 761.747 212.396ZM783.403 184.544C782.493 184.544 781.731 184.236 781.115 183.62C780.499 183.004 780.191 182.241 780.191 181.332C780.191 180.423 780.499 179.66 781.115 179.044C781.731 178.428 782.493 178.12 783.403 178.12C784.283 178.12 785.031 178.428 785.647 179.044C786.263 179.66 786.571 180.423 786.571 181.332C786.571 182.241 786.263 183.004 785.647 183.62C785.031 184.236 784.283 184.544 783.403 184.544ZM785.867 187.756V212H780.851V187.756H785.867ZM806.62 187.36C808.498 187.36 810.155 187.741 811.592 188.504C813.059 189.237 814.203 190.161 815.024 191.276V187.756H820.084V212.396C820.084 214.625 819.615 216.605 818.676 218.336C817.738 220.096 816.374 221.475 814.584 222.472C812.824 223.469 810.712 223.968 808.248 223.968C804.963 223.968 802.235 223.191 800.064 221.636C797.894 220.111 796.662 218.028 796.368 215.388H801.34C801.722 216.649 802.528 217.661 803.76 218.424C805.022 219.216 806.518 219.612 808.248 219.612C810.272 219.612 811.9 218.996 813.132 217.764C814.394 216.532 815.024 214.743 815.024 212.396V208.348C814.174 209.492 813.015 210.46 811.548 211.252C810.111 212.015 808.468 212.396 806.62 212.396C804.508 212.396 802.572 211.868 800.812 210.812C799.082 209.727 797.703 208.231 796.676 206.324C795.679 204.388 795.18 202.203 795.18 199.768C795.18 197.333 795.679 195.177 796.676 193.3C797.703 191.423 799.082 189.971 800.812 188.944C802.572 187.888 804.508 187.36 806.62 187.36ZM815.024 199.856C815.024 198.184 814.672 196.732 813.968 195.5C813.294 194.268 812.399 193.329 811.284 192.684C810.17 192.039 808.967 191.716 807.676 191.716C806.386 191.716 805.183 192.039 804.068 192.684C802.954 193.3 802.044 194.224 801.34 195.456C800.666 196.659 800.328 198.096 800.328 199.768C800.328 201.44 800.666 202.907 801.34 204.168C802.044 205.429 802.954 206.397 804.068 207.072C805.212 207.717 806.415 208.04 807.676 208.04C808.967 208.04 810.17 207.717 811.284 207.072C812.399 206.427 813.294 205.488 813.968 204.256C814.672 202.995 815.024 201.528 815.024 199.856ZM843.305 187.36C845.211 187.36 846.913 187.756 848.409 188.548C849.934 189.34 851.122 190.513 851.973 192.068C852.823 193.623 853.249 195.5 853.249 197.7V212H848.277V198.448C848.277 196.277 847.734 194.62 846.649 193.476C845.563 192.303 844.082 191.716 842.205 191.716C840.327 191.716 838.831 192.303 837.717 193.476C836.631 194.62 836.089 196.277 836.089 198.448V212H831.073V187.756H836.089V190.528C836.91 189.531 837.951 188.753 839.213 188.196C840.503 187.639 841.867 187.36 843.305 187.36Z" fill="black"/>
</svg>
