<svg width="27" height="18" viewBox="0 0 27 18" fill="none" xmlns="http://www.w3.org/2000/svg">
<path d="M26.9769 0.497238C26.9769 0.447514 26.925 0.39779 26.925 0.348066C26.925 0.348066 26.925 0.298343 26.8731 0.298343C26.8212 0.248619 26.7692 0.198895 26.7173 0.149171C26.6654 0.0994475 26.6135 0.0994475 26.5616 0.0497238H26.5096C26.4058 0 26.3539 0 26.3019 0H26.25C26.1981 0 26.1462 0 26.0943 0C26.0943 0 26.0943 0 26.0423 0L1.12019 5.17127C0.341371 5.32044 -0.125919 6.0663 0.0298446 6.76243C0.0817657 7.06077 0.28945 7.35912 0.549056 7.55801L5.74117 11.3867L5.22196 16.1105C5.11812 16.8066 5.63733 17.4033 6.36423 17.5028C6.72767 17.5525 7.14304 17.4033 7.40265 17.1547L10.2064 14.6188L9.63526 14.221C9.89486 14.5193 10.6737 14.221 10.3622 14.4696L10.2064 14.6188L14.3601 17.7017C14.6197 17.9006 14.9312 18 15.2427 18C15.3466 18 15.3985 18 15.5023 18C15.9177 17.9503 16.2292 17.7017 16.4369 17.4033L26.8731 1.14365C26.925 1.09392 26.925 1.0442 26.9769 0.944751C26.9769 0.944751 26.9769 0.944751 26.9769 0.895028C26.9769 0.845304 26.9769 0.79558 26.9769 0.745856V0.696133C27.0288 0.646409 26.9769 0.596685 26.9769 0.497238ZM1.79516 6.56354L23.1348 1.93923L6.67575 10.1436L1.79516 6.56354ZM8.54491 14.1713L6.88344 15.663L7.24688 12.4807L8.96028 13.7238L8.54491 14.1713ZM15.1908 16.4088L8.0257 11.1381L24.0174 2.73481L15.1908 16.4088Z" fill="white"/>
</svg>
